<svg xmlns="http://www.w3.org/2000/svg" viewBox="0 0 24 24" width="24" height="24" color="#000000" fill="none">
    <path d="M11.9961 1.75C14.2138 1.75 15.9526 1.74854 17.3076 1.93066C18.6843 2.11575 19.7766 2.50313 20.6348 3.36133C21.493 4.21953 21.8803 5.31182 22.0654 6.68848C22.2476 8.0435 22.2461 9.78227 22.2461 12C22.2461 14.2177 22.2476 15.9565 22.0654 17.3115C21.8803 18.6882 21.493 19.7805 20.6348 20.6387C19.7766 21.4969 18.6843 21.8842 17.3076 22.0693C15.9526 22.2515 14.2138 22.25 11.9961 22.25C9.77836 22.25 8.03959 22.2515 6.68457 22.0693C5.30791 21.8842 4.21562 21.4969 3.35742 20.6387C2.49922 19.7805 2.11184 18.6882 1.92675 17.3115C1.74463 15.9565 1.74609 14.2177 1.74609 12C1.74609 9.78227 1.74463 8.0435 1.92675 6.68848C2.11184 5.31182 2.49922 4.21953 3.35742 3.36133C4.21562 2.50313 5.30791 2.11575 6.68457 1.93066C8.03959 1.74854 9.77836 1.75 11.9961 1.75ZM11.9961 3.25C9.73572 3.25 8.11569 3.25137 6.88379 3.41699C5.67356 3.57972 4.95099 3.88885 4.41797 4.42188C3.88494 4.9549 3.57581 5.67747 3.41308 6.8877C3.24746 8.1196 3.24609 9.73963 3.24609 12C3.24609 14.2604 3.24746 15.8804 3.41308 17.1123C3.57581 18.3225 3.88495 19.0451 4.41797 19.5781C4.95099 20.1111 5.67356 20.4203 6.88379 20.583C8.11569 20.7486 9.73572 20.75 11.9961 20.75C14.2565 20.75 15.8765 20.7486 17.1084 20.583C18.3186 20.4203 19.0412 20.1111 19.5742 19.5781C20.1072 19.0451 20.4164 18.3225 20.5791 17.1123C20.7447 15.8804 20.7461 14.2604 20.7461 12C20.7461 9.73963 20.7447 8.1196 20.5791 6.8877C20.4164 5.67747 20.1072 4.9549 19.5742 4.42188C19.0412 3.88886 18.3186 3.57972 17.1084 3.41699C15.8765 3.25137 14.2565 3.25 11.9961 3.25ZM12.0049 16.1016C12.5019 16.1016 12.9053 16.5049 12.9053 17.002C12.9053 17.499 12.5019 17.9023 12.0049 17.9023H11.9961C11.499 17.9023 11.0957 17.499 11.0957 17.002C11.0957 16.5049 11.499 16.1016 11.9961 16.1016H12.0049ZM11.9961 6.25C13.791 6.25 15.2461 7.70507 15.2461 9.5C15.2461 10.6147 14.6845 11.5983 13.832 12.1826C13.5115 12.4023 13.2245 12.6328 13.0225 12.876C12.8234 13.1157 12.7461 13.3186 12.7461 13.5C12.7461 13.9142 12.4103 14.25 11.9961 14.25C11.5819 14.25 11.2461 13.9142 11.2461 13.5C11.2461 12.853 11.5333 12.3223 11.8691 11.918C12.202 11.5173 12.6207 11.1939 12.9834 10.9453C13.4453 10.6287 13.7461 10.0992 13.7461 9.5C13.7461 8.53351 12.9626 7.75 11.9961 7.75C11.0296 7.75 10.2461 8.53351 10.2461 9.5C10.2461 9.91421 9.9103 10.25 9.49609 10.25C9.08188 10.25 8.74609 9.91421 8.74609 9.5C8.74609 7.70507 10.2012 6.25 11.9961 6.25Z" fill="#141B34" />
</svg>